<?xml version="1.0" encoding="utf-8"?>
<!-- Generator: Adobe Illustrator 21.0.0, SVG Export Plug-In . SVG Version: 6.00 Build 0)  -->
<svg version="1.1"
	 id="svg2" xmlns:cc="http://creativecommons.org/ns#" xmlns:dc="http://purl.org/dc/elements/1.1/" xmlns:rdf="http://www.w3.org/1999/02/22-rdf-syntax-ns#" xmlns:svg="http://www.w3.org/2000/svg"
	 xmlns="http://www.w3.org/2000/svg" xmlns:xlink="http://www.w3.org/1999/xlink" x="0px" y="0px" width="670px" height="336px"
	 viewBox="0 0 670 336" style="enable-background:new 0 0 670 336;" xml:space="preserve">
<style type="text/css">
	.st0{fill:#F4F4F4;stroke:#8D9CA9;stroke-width:0.5998;stroke-linecap:round;stroke-linejoin:round;stroke-miterlimit:10;}
	.st1{fill:#F4F4F4;stroke:#394859;stroke-width:0.5998;stroke-linecap:round;stroke-linejoin:round;stroke-miterlimit:10;}
	.st2{fill:#8D9CA9;stroke:#8D9CA9;stroke-width:0.5998;stroke-linecap:round;stroke-linejoin:round;stroke-miterlimit:10;}
	.st3{fill:#394859;stroke:#394859;stroke-width:0.5998;stroke-linecap:round;stroke-linejoin:round;stroke-miterlimit:10;}
	.st4{fill:none;stroke:#8D9CA9;stroke-width:0.5998;stroke-linecap:round;stroke-linejoin:round;stroke-miterlimit:10;}
	.st5{fill:none;stroke:#394859;stroke-width:0.5998;stroke-linecap:round;stroke-linejoin:round;stroke-miterlimit:10;}
	.st6{fill:#DEE1E0;}
	.st7{clip-path:url(#SVGID_2_);fill:#FF7B7D;}
	.st8{clip-path:url(#SVGID_2_);fill:#8590F6;}
	.st9{clip-path:url(#SVGID_2_);fill:#04C99F;}
	.st10{clip-path:url(#SVGID_2_);fill:#FB956A;}
	.st11{clip-path:url(#SVGID_2_);fill:#FF65BE;}
	.st12{clip-path:url(#SVGID_2_);fill:#8FD640;}
	.st13{clip-path:url(#SVGID_2_);fill:#F0BC5F;}
	.st14{opacity:0.2;clip-path:url(#SVGID_2_);}
	.st15{fill:none;stroke:#FFFFFF;stroke-width:0.5998;stroke-miterlimit:10;}
	.st16{clip-path:url(#SVGID_2_);}
	.st17{fill:none;stroke:#FFFFFF;stroke-width:2.3991;stroke-linecap:round;stroke-linejoin:round;stroke-miterlimit:10;}
	.st18{fill:none;stroke:#394859;stroke-width:2.3991;stroke-linecap:round;stroke-linejoin:round;stroke-miterlimit:10;}
	.st19{fill:#A9B1B7;}
	.st20{fill:#007A87;stroke:#007A87;stroke-width:0.5998;stroke-linecap:round;stroke-linejoin:round;stroke-miterlimit:10;}
	.st21{fill:none;stroke:#007A87;stroke-width:0.5998;stroke-linecap:round;stroke-linejoin:round;stroke-miterlimit:10;}
	.st22{fill:#0C2A31;}
	.st23{fill:#FF7352;}
	.st24{fill:#8FD640;}
	.st25{fill:none;stroke:#DEE1E0;stroke-width:0.5998;stroke-linecap:round;stroke-linejoin:round;stroke-miterlimit:10;}
	.st26{fill:#8D9CA9;}
	.st27{fill:#F4F4F4;}
	.st28{fill:none;stroke:#A9B1B7;stroke-width:0.5998;stroke-linecap:round;stroke-linejoin:round;stroke-miterlimit:10;}
	.st29{fill:#FF7B7D;}
	.st30{fill:#394859;}
	.st31{fill:#FFB400;stroke:#007A87;stroke-width:0.5998;stroke-linecap:round;stroke-linejoin:round;stroke-miterlimit:10;}
	.st32{fill:#8590F6;}
</style>
<g>
	<g>
		<path class="st0" d="M371.9,243h-82.7c-2.7,0-4.9-2.2-4.9-4.9V119.2c0-2.7,2.2-4.9,4.9-4.9h82.7c2.7,0,4.9,2.2,4.9,4.9v118.9
			C376.9,240.8,374.7,243,371.9,243z"/>
		<rect x="284.3" y="122.1" class="st1" width="92.6" height="113.1"/>
	</g>
	<g>
		<path class="st0" d="M585.7,5.9v82.7c0,2.7-2.2,4.9-4.9,4.9H461.9c-2.7,0-4.9-2.2-4.9-4.9V5.9c0-2.7,2.2-4.9,4.9-4.9h118.9
			C583.5,1,585.7,3.2,585.7,5.9z"/>
		
			<rect x="475" y="-9.3" transform="matrix(6.123234e-17 -1 1 6.123234e-17 474.0433 568.5934)" class="st1" width="92.6" height="113.1"/>
	</g>
	<polygon class="st0" points="468.7,253.3 475.3,311.8 511.8,311.8 497.8,253.3 	"/>
	<polygon class="st2" points="468.7,253.3 470.1,265.9 502.3,272 497.8,253.3 	"/>
	<polygon class="st0" points="447.4,335.1 492.5,335.1 511.8,311.8 475.3,311.8 	"/>
	<path class="st0" d="M580.1,260.6H390.4c-3.1,0-5.6-2.5-5.6-5.6V106.1c0-3.1,2.5-5.6,5.6-5.6h189.6c3.1,0,5.6,2.5,5.6,5.6v148.8
		C585.7,258,583.2,260.6,580.1,260.6z"/>
	<path class="st3" d="M390.4,100.5h189.6c3.1,0,5.6,2.5,5.6,5.6v132.5H384.8V106.1C384.8,103,387.3,100.5,390.4,100.5z"/>
	<rect x="391.1" y="106.8" class="st1" width="188.2" height="125.4"/>
	<g>
		<g>
			<polyline class="st1" points="239.2,212.7 190.2,212.7 190.2,182.6 239.2,182.6 			"/>
			<path class="st0" d="M184.8,184.4v26.4c0,1,0.8,1.9,1.9,1.9h3.6v-30.1h-3.6C185.6,182.5,184.8,183.4,184.8,184.4z"/>
			<line class="st0" x1="187.5" y1="200.9" x2="187.5" y2="194.2"/>
			<path class="st0" d="M244.6,184.4v26.4c0,1-0.8,1.9-1.9,1.9h-3.6v-30.1h3.6C243.8,182.5,244.6,183.4,244.6,184.4z"/>
		</g>
		<path class="st0" d="M242.7,199.9c0,0.5-0.4,0.8-0.8,0.8c-0.5,0-0.8-0.4-0.8-0.8v-4.6c0-0.5,0.4-0.8,0.8-0.8
			c0.5,0,0.8,0.4,0.8,0.8V199.9z"/>
	</g>
	<g>
		<g>
			<polyline class="st1" points="249.8,207.2 249.8,158.2 279.9,158.2 279.9,207.2 			"/>
			<path class="st3" d="M278.1,152.8h-26.4c-1,0-1.9,0.8-1.9,1.9v3.6h30.1v-3.6C279.9,153.6,279.1,152.8,278.1,152.8z"/>
			<line class="st4" x1="261.5" y1="155.5" x2="268.3" y2="155.5"/>
			<path class="st3" d="M278.1,212.7h-26.4c-1,0-1.9-0.8-1.9-1.9v-3.6h30.1v3.6C279.9,211.8,279.1,212.7,278.1,212.7z"/>
		</g>
		<circle class="st5" cx="264.9" cy="210" r="1.7"/>
	</g>
	<g>
		<polyline class="st1" points="345.4,304.4 345.4,253.3 376.9,253.3 376.9,304.4 		"/>
		<path class="st3" d="M374.9,247.6h-27.6c-1.1,0-1.9,0.9-1.9,1.9v3.7h31.5v-3.7C376.9,248.5,376,247.6,374.9,247.6z"/>
		<line class="st4" x1="357.7" y1="250.4" x2="364.7" y2="250.4"/>
		<path class="st3" d="M374.9,310.1h-27.6c-1.1,0-1.9-0.9-1.9-1.9v-3.7h31.5v3.7C376.9,309.3,376,310.1,374.9,310.1z"/>
	</g>
	<circle class="st4" cx="361.1" cy="307.3" r="1.8"/>
	<g>
		<g>
			<polyline class="st1" points="391.1,62.3 442.1,62.3 442.1,93.7 391.1,93.7 			"/>
			<path class="st0" d="M448,91.8V64.2c0-1.1-0.9-1.9-1.9-1.9h-3.7v31.5h3.7C447.1,93.7,448,92.9,448,91.8z"/>
			<line class="st4" x1="445.1" y1="74.5" x2="445.1" y2="81.5"/>
			<path class="st0" d="M385.4,91.8V64.2c0-1.1,0.9-1.9,1.9-1.9h3.7v31.5h-3.7C386.3,93.7,385.4,92.9,385.4,91.8z"/>
		</g>
		<circle class="st4" cx="388.3" cy="78" r="1.8"/>
	</g>
	<path class="st6" d="M167.3,217.1c0,0-2.7,0.6-2.8,1.2c0,0.5,0.9,0,2.9,0.5C169.5,219.2,167.3,217.1,167.3,217.1z"/>
	<path class="st3" d="M277.1,218.8h-115c-1.6,0-2.8,1.3-2.8,2.8v95.5h120.7v-95.5C279.9,220,278.7,218.8,277.1,218.8z"/>
	<polygon class="st0" points="248.2,335.1 127.5,335.1 159.3,317.1 279.9,317.1 	"/>
	<polygon class="st0" points="212.9,332.4 180.5,332.4 188.5,327.8 220.9,327.8 	"/>
	<line class="st0" x1="171.9" y1="319.4" x2="257.6" y2="319.4"/>
	<line class="st0" x1="167.4" y1="322.1" x2="252.6" y2="322.1"/>
	<line class="st0" x1="162.4" y1="324.9" x2="248.1" y2="324.9"/>
	<rect x="164.6" y="224.1" class="st1" width="110.1" height="87.8"/>
	<path class="st0" d="M336.4,317.4h-49.3c-1.5,0-2.8-1.2-2.8-2.8v-64.2c0-1.5,1.2-2.8,2.8-2.8h49.3c1.5,0,2.8,1.2,2.8,2.8v64.2
		C339.2,316.1,338,317.4,336.4,317.4z"/>
	<rect x="284.3" y="252" class="st1" width="54.9" height="60.4"/>
	<g>
		<defs>
			<path id="SVGID_1_" d="M284.3,122.1h92.6v113.1h-92.6V122.1z M577.9,93.6V1H464.8v92.6H577.9z M391.1,232.2h188.2V106.8H391.1
				V232.2z M239.2,182.6h-49v30.1h49V182.6z M249.8,207.2h30.1v-49h-30.1V207.2z M345.4,304.4h31.4v-51.2h-31.4V304.4z M442.2,62.3
				H391v31.4h51.2V62.3z M164.6,311.8h110.1v-87.8H164.6V311.8z M284.3,312.4h54.9V252h-54.9V312.4z"/>
		</defs>
		<clipPath id="SVGID_2_">
			<use xlink:href="#SVGID_1_"  style="overflow:visible;"/>
		</clipPath>
		<rect x="40.2" y="-125.1" class="st7" width="745.5" height="470"/>
		<rect x="40.2" y="215.5" class="st8" width="239.7" height="129.5"/>
		<rect x="7.6" y="86.7" class="st9" width="239.7" height="129.5"/>
		
			<rect x="247.4" y="86.7" transform="matrix(-1 -1.224647e-16 1.224647e-16 -1 531.7029 302.9386)" class="st10" width="37" height="129.5"/>
		<rect x="283.6" y="86.7" class="st11" width="97.3" height="152.5"/>
		<rect x="590.7" y="225.2" class="st8" width="97.3" height="152.5"/>
		<rect x="345.4" y="245.8" class="st12" width="35.4" height="69.7"/>
		
			<rect x="380.8" y="97" transform="matrix(-1 -1.224647e-16 1.224647e-16 -1 966.541 336.2171)" class="st13" width="204.9" height="142.3"/>
		<rect x="689.4" y="86.7" class="st12" width="41.4" height="152.5"/>
		<g class="st14">
			<line class="st15" x1="724.7" y1="-213.1" x2="164.8" y2="-213.1"/>
			<line class="st15" x1="724.7" y1="-201.7" x2="164.8" y2="-201.7"/>
			<line class="st15" x1="724.7" y1="-190.2" x2="164.8" y2="-190.2"/>
			<line class="st15" x1="724.7" y1="-178.8" x2="164.8" y2="-178.8"/>
			<line class="st15" x1="724.7" y1="-167.4" x2="164.8" y2="-167.4"/>
			<line class="st15" x1="724.7" y1="-156" x2="164.8" y2="-156"/>
			<line class="st15" x1="724.7" y1="-144.5" x2="164.8" y2="-144.5"/>
			<line class="st15" x1="724.7" y1="-133.1" x2="164.8" y2="-133.1"/>
			<line class="st15" x1="724.7" y1="-121.7" x2="164.8" y2="-121.7"/>
			<line class="st15" x1="724.7" y1="-110.3" x2="164.8" y2="-110.3"/>
			<line class="st15" x1="724.7" y1="-98.8" x2="164.8" y2="-98.8"/>
			<line class="st15" x1="724.7" y1="-87.4" x2="164.8" y2="-87.4"/>
			<line class="st15" x1="724.7" y1="-76" x2="164.8" y2="-76"/>
			<line class="st15" x1="724.7" y1="-64.5" x2="164.8" y2="-64.5"/>
			<line class="st15" x1="724.7" y1="-53.1" x2="164.8" y2="-53.1"/>
			<line class="st15" x1="724.7" y1="-41.7" x2="164.8" y2="-41.7"/>
			<line class="st15" x1="724.7" y1="-30.3" x2="164.8" y2="-30.3"/>
			<line class="st15" x1="724.7" y1="-18.8" x2="164.8" y2="-18.8"/>
			<line class="st15" x1="724.7" y1="-7.4" x2="164.8" y2="-7.4"/>
			<line class="st15" x1="724.7" y1="4" x2="164.8" y2="4"/>
			<line class="st15" x1="724.7" y1="15.4" x2="164.8" y2="15.4"/>
			<line class="st15" x1="724.7" y1="26.9" x2="164.8" y2="26.9"/>
			<line class="st15" x1="724.7" y1="38.3" x2="164.8" y2="38.3"/>
			<line class="st15" x1="724.7" y1="49.7" x2="164.8" y2="49.7"/>
			<line class="st15" x1="724.7" y1="61.2" x2="164.8" y2="61.2"/>
			<line class="st15" x1="724.7" y1="72.6" x2="164.8" y2="72.6"/>
			<line class="st15" x1="724.7" y1="97.7" x2="164.8" y2="97.7"/>
			<line class="st15" x1="724.7" y1="95.4" x2="164.8" y2="95.4"/>
			<line class="st15" x1="724.7" y1="106.9" x2="164.8" y2="106.9"/>
			<line class="st15" x1="724.7" y1="118.3" x2="164.8" y2="118.3"/>
			<line class="st15" x1="724.7" y1="129.7" x2="164.8" y2="129.7"/>
			<line class="st15" x1="724.7" y1="141.1" x2="164.8" y2="141.1"/>
			<line class="st15" x1="724.7" y1="152.6" x2="164.8" y2="152.6"/>
			<line class="st15" x1="724.7" y1="164" x2="164.8" y2="164"/>
			<line class="st15" x1="724.7" y1="175.4" x2="164.8" y2="175.4"/>
			<line class="st15" x1="724.7" y1="186.8" x2="164.8" y2="186.8"/>
			<line class="st15" x1="724.7" y1="198.3" x2="164.8" y2="198.3"/>
			<line class="st15" x1="724.7" y1="209.7" x2="164.8" y2="209.7"/>
			<line class="st15" x1="724.7" y1="221.1" x2="164.8" y2="221.1"/>
			<line class="st15" x1="724.7" y1="232.6" x2="164.8" y2="232.6"/>
			<line class="st15" x1="724.7" y1="244" x2="164.8" y2="244"/>
			<line class="st15" x1="724.7" y1="255.4" x2="164.8" y2="255.4"/>
			<line class="st15" x1="724.7" y1="266.8" x2="164.8" y2="266.8"/>
			<line class="st15" x1="724.7" y1="278.3" x2="164.8" y2="278.3"/>
			<line class="st15" x1="724.7" y1="289.7" x2="164.8" y2="289.7"/>
			<line class="st15" x1="724.7" y1="301.1" x2="164.8" y2="301.1"/>
			<line class="st15" x1="724.7" y1="312.5" x2="164.8" y2="312.5"/>
			<line class="st15" x1="724.7" y1="324" x2="164.8" y2="324"/>
			<line class="st15" x1="724.7" y1="335.4" x2="164.8" y2="335.4"/>
			<line class="st15" x1="724.7" y1="346.8" x2="164.8" y2="346.8"/>
			<line class="st15" x1="724.7" y1="346.8" x2="724.7" y2="-213.1"/>
			<line class="st15" x1="713.3" y1="346.8" x2="713.3" y2="-213.1"/>
			<line class="st15" x1="701.8" y1="346.8" x2="701.8" y2="-213.1"/>
			<line class="st15" x1="690.4" y1="346.8" x2="690.4" y2="-213.1"/>
			<line class="st15" x1="679" y1="346.8" x2="679" y2="-213.1"/>
			<line class="st15" x1="667.6" y1="346.8" x2="667.6" y2="-213.1"/>
			<line class="st15" x1="656.1" y1="346.8" x2="656.1" y2="-213.1"/>
			<line class="st15" x1="644.7" y1="346.8" x2="644.7" y2="-213.1"/>
			<line class="st15" x1="633.3" y1="346.8" x2="633.3" y2="-213.1"/>
			<line class="st15" x1="621.9" y1="346.8" x2="621.9" y2="-213.1"/>
			<line class="st15" x1="610.4" y1="346.8" x2="610.4" y2="-213.1"/>
			<line class="st15" x1="599" y1="346.8" x2="599" y2="-213.1"/>
			<line class="st15" x1="587.6" y1="346.8" x2="587.6" y2="-213.1"/>
			<line class="st15" x1="576.1" y1="346.8" x2="576.1" y2="-213.1"/>
			<line class="st15" x1="564.7" y1="346.8" x2="564.7" y2="-213.1"/>
			<line class="st15" x1="553.3" y1="346.8" x2="553.3" y2="-213.1"/>
			<line class="st15" x1="541.9" y1="346.8" x2="541.9" y2="-213.1"/>
			<line class="st15" x1="530.4" y1="346.8" x2="530.4" y2="-213.1"/>
			<line class="st15" x1="519" y1="346.8" x2="519" y2="-213.1"/>
			<line class="st15" x1="507.6" y1="346.8" x2="507.6" y2="-213.1"/>
			<line class="st15" x1="496.2" y1="346.8" x2="496.2" y2="-213.1"/>
			<line class="st15" x1="484.7" y1="346.8" x2="484.7" y2="-213.1"/>
			<line class="st15" x1="473.3" y1="346.8" x2="473.3" y2="-213.1"/>
			<line class="st15" x1="461.9" y1="346.8" x2="461.9" y2="-213.1"/>
			<line class="st15" x1="450.4" y1="346.8" x2="450.4" y2="-213.1"/>
			<line class="st15" x1="439" y1="346.8" x2="439" y2="-213.1"/>
			<line class="st15" x1="427.6" y1="346.8" x2="427.6" y2="-213.1"/>
			<line class="st15" x1="416.2" y1="346.8" x2="416.2" y2="-213.1"/>
			<line class="st15" x1="404.7" y1="346.8" x2="404.7" y2="-213.1"/>
			<line class="st15" x1="393.3" y1="346.8" x2="393.3" y2="-213.1"/>
			<line class="st15" x1="381.9" y1="346.8" x2="381.9" y2="-213.1"/>
			<line class="st15" x1="370.5" y1="346.8" x2="370.5" y2="-213.1"/>
			<line class="st15" x1="359" y1="346.8" x2="359" y2="-213.1"/>
			<line class="st15" x1="347.6" y1="346.8" x2="347.6" y2="-213.1"/>
			<line class="st15" x1="336.2" y1="346.8" x2="336.2" y2="-213.1"/>
			<line class="st15" x1="324.8" y1="346.8" x2="324.8" y2="-213.1"/>
			<line class="st15" x1="313.3" y1="346.8" x2="313.3" y2="-213.1"/>
			<line class="st15" x1="301.9" y1="346.8" x2="301.9" y2="-213.1"/>
			<line class="st15" x1="290.5" y1="346.8" x2="290.5" y2="-213.1"/>
			<line class="st15" x1="279" y1="346.8" x2="279" y2="-213.1"/>
			<line class="st15" x1="267.6" y1="346.8" x2="267.6" y2="-213.1"/>
			<line class="st15" x1="256.2" y1="346.8" x2="256.2" y2="-213.1"/>
			<line class="st15" x1="244.8" y1="346.8" x2="244.8" y2="-213.1"/>
			<line class="st15" x1="233.3" y1="346.8" x2="233.3" y2="-213.1"/>
			<line class="st15" x1="221.9" y1="346.8" x2="221.9" y2="-213.1"/>
			<line class="st15" x1="210.5" y1="346.8" x2="210.5" y2="-213.1"/>
			<line class="st15" x1="199.1" y1="346.8" x2="199.1" y2="-213.1"/>
			<line class="st15" x1="187.6" y1="346.8" x2="187.6" y2="-213.1"/>
			<line class="st15" x1="176.2" y1="346.8" x2="176.2" y2="-213.1"/>
			<line class="st15" x1="164.8" y1="346.8" x2="164.8" y2="-213.1"/>
		</g>
		<g class="st16">
			<polyline class="st17" points="159.3,304.2 258,199.2 303.2,266.1 322.2,155.5 359.8,289 423,173 437.1,185.3 445.3,172.9 
				455.6,183.9 479.6,140.1 503.2,165 553.3,32.4 599,81.5 629.7,15.4 649.9,171.8 668.9,144.9 676.9,154.4 731.9,89.8 			"/>
			<path class="st18" d="M151.8,284.8c0,0,10.2-33.2,45.1-44.4c34.9-11.2,30.7-58.3,69.7-58.3c24.1,0,40.3,32.6,55.1,32.6
				c14.8,0,24.2-33.8,40.1-33.8s17.4,27.3,42.8,27.3s25.7-56.9,41.9-58.2c8.9-0.7,11.9,14,21.6,13.8c20.4-0.4,18-116.5,43.6-116.5
				c14.6,0,13.3,30.7,32.8,30.7c25.1,0,23-77,65.9-77c26.5,0,136.8,79.8,136.8,79.8"/>
		</g>
		<use xlink:href="#SVGID_1_"  style="overflow:visible;fill:none;stroke:#8D9CA9;stroke-width:0.5998;stroke-miterlimit:10;"/>
	</g>
	<g>
		<g>
			<g>
				<path class="st6" d="M102.9,203.8c0.2-1.6,0.5-11.6,0.5-11.6l-4.2-1.6c0,0-1.2,1.9-2.1,6.7c-0.2,1.2-0.7,2-0.7,2
					S102.8,204.9,102.9,203.8z"/>
				<path class="st19" d="M97.5,192.2c0,0,0.4-3.2,1.8,0.8c0.9,2.4,3.9,5.9,3.9,5.9l0.2-4.5l-1.6-3l-4.4,0.1L97.5,192.2z"/>
			</g>
			<g>
				<path class="st6" d="M104.2,181.4c-3.6-0.1-6.3,2.2-6.5,6.2c0,1,0.8,2.3,0.8,2.5c0.4,2.4,1.1,3.1,2.6,4.2
					c1.6,1.2,3.6,2.1,5.3,1.7c2.2-0.5,1.9-4.4,1.9-4.4s0.8-0.3,0.9-0.7c0.1-0.3,0-0.5-0.3-0.9c-0.6-0.8-0.7-1.6-0.8-2.4
					C107.6,184.2,107.4,181.5,104.2,181.4z"/>
				<path class="st20" d="M96,185.3c0,0-2.2,0.4-1.6,3c0.4,1.4,1.1,2.3,1.1,2.3s-0.1-1.3-0.1-2.4C95.4,186.6,96,185.3,96,185.3z"/>
				<path class="st21" d="M96.8,190.3c0,0-0.2-0.7,0.3-1.1c0.4-0.4,0.9-0.2,0.9-0.2"/>
				<path class="st22" d="M97.6,195.4c3.5-1.2,1.1-4.1,1.1-4.1s0.8-2.5,1-2.4c1.3,0.3,1.7-0.9,2.1-2.3c0.3-1.1,0.1-2.8,0.1-2.8
					s2.6-0.8,5.6,0.6c0,0,0.1,0.1,0.2,0.6c0.2,0.8,0.3,1.7,0.3,1.7c1.5-0.1,2.3-2.6,1.5-4.7c-0.7-1.9-3.2-3-4.7-2.9
					c-2.2,0.2-4.1,1.2-4.1,1.2s-1.4-0.4-2.6-0.3c-3.6,0.4-7.1,3.1-6.2,8.8c0.2,1.6,2.5,2.6,4,4C96.9,193.7,97.6,195.4,97.6,195.4z"
					/>
				<path class="st6" d="M99.7,188.9c0,0-0.5-0.4-1.3-0.3c-1,0.1-1.6,0.9-1.5,1.8s0.9,1.6,1.9,1.4c0.8-0.1,1.2-0.7,1.2-0.7"/>
			</g>
		</g>
		<path class="st23" d="M96.3,208.7"/>
		<path class="st6" d="M94.7,233.2c0,0-5.6,10.3-3.1,18.1c2.7,8.3,12.5,28.1,12.5,28.1s-1.2,3.8,0.6,14c1.4,7.7,9.2,36.2,9.2,36.2
			h3.2l-5.5-49.2c-1.1-7.5-4.5-47.2-4.5-47.2L94.7,233.2z"/>
		<path class="st22" d="M113.4,336c0,0,11.2,0,12.3,0c1.7,0,2.1-1.5-0.4-1.8c-3-0.4-4.5-0.7-6-1.7c-1.5-1-2.1-2.9-2.1-2.9H114
			L113.4,336z"/>
		<path class="st6" d="M95.2,233.2c0,0-5.5,7.3-5.6,18.1c-0.1,8.3,1.6,28.1,1.6,28.1s-2.4,3.8-3.4,14c-0.7,7.7-3,36.2-3,36.2H88
			l10.4-48.9c0.9-7.5,2.6-6.6,7.6-35.4l1.1-12L95.2,233.2z"/>
		<path class="st22" d="M95.2,233.2c0,0-5.5,7.3-5.6,18.1c-0.1,8.3,1.6,28.1,1.6,28.1h20.5l-4.5-46.2L95.2,233.2"/>
		<g>
			<path class="st24" d="M107.3,209.8l1.7,9.1l-3.8-16.9c0,0,3.1-1,2.9,0l7,17c1.5,3.5-2.3,9.2-7.5,2.9l0.4-4L107.3,209.8z"/>
		</g>
		<g>
			<polyline class="st25" points="108.6,196.8 108.7,195.2 108.4,193.8 			"/>
			<line class="st25" x1="105.6" y1="200.9" x2="106.5" y2="196.8"/>
			<polyline class="st25" points="109.4,197.5 109.7,195.9 109,194.2 			"/>
			<polyline class="st25" points="109.6,198.7 110.4,196.7 109.2,194.8 			"/>
			<polyline class="st25" points="109.8,199.5 110.5,198.1 111,196.6 			"/>
			<path class="st6" d="M105.3,200.4l3.1-4.1l2.1,3.2l-2.8,3.2c-0.7,0.5-1.6,0.4-2.2-0.2l0,0C104.9,201.9,104.8,201,105.3,200.4z"/>
		</g>
		<path class="st24" d="M91.1,209.7c2.9,15.5,4,23.6,4,23.6l12,0c0,0,0.4-9.9,0.9-13.2c1.4-8,0.5-10.8-4.3-17.9
			C100.3,197,88.9,198.1,91.1,209.7z"/>
		<g>
			<path class="st24" d="M97.2,216.2l-1.3,9.3c0,0,17.4,8.6,17.8,8.7c0,0-0.7,2.4-1.7,2c0,0-13.5-2.7-19.6-5.1
				c-2.4-1-3.2-3.3-3.1-4.8l1.5-21.5L97.2,216.2z"/>
		</g>
		<g>
			<line class="st25" x1="116" y1="240.5" x2="117.3" y2="241.1"/>
			<polyline class="st25" points="116.5,240 118.9,241.1 121,240.9 			"/>
			<polyline class="st25" points="116.8,239.2 119.7,240.2 121.2,240.4 			"/>
			<polyline class="st25" points="117.9,238.5 119.6,239.2 120.8,238.4 			"/>
			<path class="st6" d="M111.9,236.8l3.9,4.3l2.6-2.9l-4.2-3.7c-0.7-0.5-1.6-0.4-2.2,0.2l0,0C111.5,235.3,111.5,236.2,111.9,236.8z"
				/>
		</g>
		<path class="st22" d="M84.3,336c0,0,11.2,0,12.3,0c1.7,0,2.5-1.5,0.1-1.8c-2.9-0.4-4.3-0.7-5.5-1.7c-1.2-1-3.1-2.9-3.1-2.9h-3.2
			L84.3,336z"/>
	</g>
	<g>
		<path class="st22" d="M537,188c0,0,0,7.5-3.3,9.7s-4.5,2.9-3.8,5.6c0.8,3.5,5.5,3,5.5,3l7.7-9.1L537,188z"/>
		<path class="st23" d="M543.4,208"/>
		<polygon class="st0" points="534.5,330.7 533.6,324.9 537.9,324.8 538.8,330.9 		"/>
		<path class="st26" d="M545,232.5c0,0,1.2,7.6-1.3,15.4c-2.7,8.3-11.8,31-11.8,31s1.2,3.9,2.8,12.1c2.7,13.7,3.9,35.4,3.9,35.4
			l-5.1,0.4l-9.4-38.9c-1.4-5.1-2.2-9.9-1.1-15.2c2.8-14.4,9.5-40.3,9.5-40.3L545,232.5z"/>
		<path class="st22" d="M540,335.3c0,0-11.2,0-12.3,0c-1.7,0-2.5-1.5-0.1-1.8c2.9-0.4,4.3-0.7,5.6-1.7c1.2-1,0.8-2.9,0.8-2.9h4.9
			L540,335.3z"/>
		<polygon class="st0" points="546.2,330.6 545.7,324.9 550,324.8 550.5,330.8 		"/>
		<path class="st26" d="M547.3,232.5c0,0,0.6,7.4,1.8,18.1c2,18.6,1.7,75.8,1.7,75.8l-5.1-0.1c0,0-2.1-38.5-10.9-82.3l0-11.5
			L547.3,232.5z"/>
		<g>
			<path class="st19" d="M532.1,213.3l-4,7.9l-9.2-16.6c0,0-2.9,2.4-1.8,2.6l7.5,19.7c1,3.4,4.2,3.1,6.8-0.5l6.5-8.7L532.1,213.3z"
				/>
		</g>
		<g>
			<path class="st27" d="M536.8,203.6c-2.1,4-6.4,12-6.3,12.3c0.1,0.2,7.4,3.2,7.4,3.2s5.5-8.3,6.9-12.9c0.4-1.2,0.7-2.7,0.1-3.7
				C542.2,198.3,538.1,201,536.8,203.6z"/>
		</g>
		<g>
			<polyline class="st28" points="512.2,206.2 510.7,205.5 510,203.9 			"/>
			<line class="st28" x1="517.6" y1="204.5" x2="513.7" y2="203"/>
			<polyline class="st28" points="512.5,207.2 510.9,206.7 509.7,205.4 			"/>
			<polyline class="st28" points="513.5,207.9 511.3,207.8 510.1,205.8 			"/>
			<polyline class="st28" points="514.1,208.4 512.1,209.2 510.6,209 			"/>
			<path class="st19" d="M517.3,204l-5.4,1.7l1.8,3.5l4.6-2.1c0.8-0.4,1.1-1.3,0.8-2.1l0,0C518.8,204.3,518,203.9,517.3,204z"/>
		</g>
		<path class="st29" d="M550.3,209c0.2,14.9,0.1,23.6,0.1,23.6l-17.8,0c0,0-0.4-9.9-0.9-13.2c-1.4-8-1.1-11.2,4.3-17.9
			c1.9-2.4,6.7-3.2,10-2.8C548.7,198.9,550.2,203.7,550.3,209z"/>
		<g>
			<path class="st6" d="M543.4,214.2l1.5,10.7c0,0-18.5,5.2-18.9,5.2c0,0,0.7,2.4,1.7,2c0,0,12.4-0.7,19.8-1.7
				c2.6-0.3,3.2-2.5,3.1-3.9l-1.2-15.5L543.4,214.2z"/>
		</g>
		<g>
			<path class="st29" d="M540.9,206.2c0.1,5.3,2.3,7.8,2.5,7.9l6.2-1.4c0,0,2.5-4.3,1.1-8.8c-0.4-1.2-1.7-3.5-2.9-4
				C543.4,197.9,540.9,203.4,540.9,206.2z"/>
		</g>
		<g>
			<line class="st25" x1="523.7" y1="236.4" x2="522.4" y2="236.9"/>
			<polyline class="st25" points="523.2,235.8 520.8,236.9 518.8,236.7 			"/>
			<polyline class="st25" points="522.9,235 520.1,236 518.6,236.2 			"/>
			<polyline class="st25" points="521.8,234.3 520.1,235 518.9,234.2 			"/>
			<path class="st6" d="M527.8,232.6l-3.9,4.3l-2.6-2.9l4.2-3.7c0.7-0.5,1.6-0.4,2.2,0.2v0C528.2,231.1,528.3,232,527.8,232.6z"/>
		</g>
		<path class="st22" d="M551,335.3c0,0-11.2,0-12.3,0c-1.7,0-2.5-1.5-0.1-1.8c2.9-0.4,4.3-0.7,5.5-1.7c1.2-1,1.4-2.9,1.4-2.9h4.9
			L551,335.3z"/>
		<g>
			<g>
				<path class="st6" d="M538.6,201.4c-0.2-1.6-0.5-10.8-0.5-10.8l4.2-1.6c0,0,1,5.1,2.3,8c0.3,0.6,0.5,1.5,0.5,1.5
					S538.7,202.5,538.6,201.4z"/>
				<path class="st19" d="M543.9,190.6c0,0-0.4-3.2-1.8,0.8c-0.9,2.4-3.9,5.9-3.9,5.9l-0.2-4.5l1.6-3l4.4,0.1L543.9,190.6z"/>
			</g>
			<g>
				<path class="st6" d="M537.3,179.8c3.6-0.1,6.3,2.2,6.5,6.2c0,1-0.8,2.3-0.8,2.5c-0.4,2.4-1.1,3.1-2.6,4.2
					c-1.6,1.2-3.6,2.1-5.3,1.7c-2.2-0.5-1.9-4.4-1.9-4.4s-0.8-0.3-0.9-0.7c-0.1-0.3,0-0.5,0.3-0.9c0.6-0.8,0.7-1.6,0.8-2.4
					C533.8,182.6,534.1,179.9,537.3,179.8z"/>
				<path class="st20" d="M545.4,183.7c0,0,2.2,0.4,1.6,3c-0.4,1.4-1.1,2.3-1.1,2.3s0.1-1.3,0.1-2.4
					C546,185,545.4,183.7,545.4,183.7z"/>
				<path class="st21" d="M544.6,188.8c0,0,0.2-0.7-0.3-1.1c-0.4-0.4-0.9-0.2-0.9-0.2"/>
				<path class="st22" d="M531.9,180.4c0.7-1.9,3.3-3,4.8-2.9c2.2,0.2,4.1,1.2,4.1,1.2s1.4-0.4,2.6-0.3c3.6,0.4,7.1,3.1,6.2,8.8
					c-1,6.3,4.3,4.6,3.1,10.4c-1.1,5.1-6.7,3.9-8.4,2.6c-6.5-4.9-1.5-10.4-1.5-10.4s-0.7-2.5-1-2.4c-1.3,0.3-1.7-0.9-2.1-2.3
					c-0.3-1.1-0.1-2.8-0.1-2.8s-2.6-0.8-5.6,0.6c0,0-0.1,0.1-0.2,0.6c-0.2,0.9-0.3,1.7-0.3,1.7C532,184.9,531.2,182.5,531.9,180.4z"
					/>
				<path class="st6" d="M541.8,187.4c0,0,0.5-0.4,1.3-0.3c1,0.1,1.6,0.9,1.5,1.8c-0.1,0.9-0.9,1.6-1.9,1.4
					c-0.8-0.1-1.2-0.7-1.2-0.7"/>
			</g>
		</g>
	</g>
	<g>
		<path class="st22" d="M387.8,335.3h17.8c0,0,0.6-1.3-2.4-2.1s-5.1-1.3-5.9-2.6c-0.9-1.2-0.5-4.1-0.5-4.1h-7.4L387.8,335.3z"/>
		<path class="st22" d="M403.5,335.3h19.9c0,0,1.1-1.3-1.9-2.1s-8.2-1.3-9.1-2.6c0.3,0.5-0.3-5.8-0.5-4.1h-7.4L403.5,335.3z"/>
		<path class="st30" d="M395.8,235.9c0.1,25.6-0.7,35-3.5,61.4c-2.3,22.1-4,34.2-4,34.2s3.2-2.2,4.2-2.6c0.9-0.3,4.2-0.3,4.2-0.3
			s6.8-29,8.1-40.2c1.7-15.5,4.1-33.1,4.5-52.5H395.8z"/>
		<path class="st30" d="M417.3,235.9c-0.2,22.2-0.1,22.2-1.4,53.3c-0.7,18.2-3.5,40.1-3.5,40.1l-8.5,3.1c0,0,1-28.3,1.1-43.3
			c0.2-17-0.1-17-2-53.1H417.3z"/>
		<g>
			<g>
				<path class="st23" d="M402.2,201"/>
				<g>
					<g>
						<path class="st31" d="M405.7,192.2"/>
						<polyline class="st30" points="401.4,192.9 402.1,181.9 405.3,181.4 405.3,185.5 409.2,187.8 409.5,194.3 						"/>
						<path class="st22" d="M405.5,183.5c0,0-2.1-2.6-1.3,1.7c0.2,1,5.2,6.6,5.2,6.6l-0.2-4.1l-2-2.8l-0.5-2.1L405.5,183.5z"/>
						<path class="st30" d="M409.3,174.5c-3.5,0-6.1,2.3-6.1,6.1c0,0.9,0.8,2.2,0.9,2.4c0.5,2.3,1,3.1,2.6,4
							c2.1,1.2,3.5,1.9,5.1,1.5c2.1-0.5,1.8-4.8,1.8-4.8s0.8-0.3,0.9-0.7c0-0.3,0-0.5-0.3-0.9c-0.6-0.8-0.7-1.5-0.8-2.3
							C412.8,176.7,412.4,174.6,409.3,174.5z"/>
						<path class="st22" d="M398.9,174.5c1.8-2,9.9-4.8,12.8-2.2c1.1,1,1,2.7,0.2,3.1c-0.9,0.5-2.9,1-5,1c-1.2,0-1.7,0.6-1.3,1.2
							c1.6,2.4-0.4,4.3-1.4,4.1l0.1-0.9c-0.4-2.1-0.1,0.3-0.3,1.7c0,0,0.1,1.5-0.5,2.2c-1.5,1.9-2,2.2-2,2.2
							C399,182.5,395.3,178.6,398.9,174.5z"/>
						<path class="st30" d="M404.5,182.9c-0.8,0.1-1.6-0.6-1.7-1.6c-0.1-0.9,0.5-1.8,1.3-1.9s1.5,0.6,1.6,1.6c0,0,0,0.8,0,1"/>
					</g>
				</g>
				<path class="st32" d="M407.9,193.1c-1.8-0.3-7.3-0.7-7.3-0.7c-2,1.2-4.5,2.8-5.8,4.1c-2.1,2.1-2.4,4.9-2.3,15.3
					c0,9.9,2.8,14.3,3.4,30.6c0,0,5.6-2.1,13.3,0.9c9.7,3.8,8.2-2.3,8.2-2.3s1.4-26.3-2.5-38.6C412.7,196.2,411.3,193.8,407.9,193.1
					z"/>
			</g>
		</g>
		<path class="st32" d="M398.2,245.9l-10-18.6c-1.2-2.6-1.6-5.5-1-8.4l6.2-20.2l9.1,5.6l-6.4,17.5l7.4,20.4L398.2,245.9z"/>
		<polyline class="st5" points="447.6,216.8 450.6,215.1 452.5,213 		"/>
		<polyline class="st5" points="448.4,215.7 450.5,214.4 452.5,212.6 		"/>
		<polyline class="st5" points="447.6,214.8 451.1,213.2 452.3,212.1 		"/>
		<polyline class="st5" points="447.7,213.4 450.6,212.4 451.7,211.7 		"/>
		<line class="st5" x1="444.5" y1="213.7" x2="447.7" y2="211.7"/>
		<path class="st30" d="M442.4,217.1l5.5,0.2l-0.1-4.5l-5.7,0.9c-0.9,0.2-1.4,1.1-1.3,1.9l0,0C440.9,216.5,441.6,217.1,442.4,217.1z
			"/>
		<g>
			<path class="st32" d="M442.5,213.6c-0.4,0.2-18.3,2.4-18.3,2.4s-9-15.1-11.6-19c-1.6-2.5-8.2-3.1-10.1,2.2
				c-0.4,1.3-0.2,3.8,0.3,5c1.9,4.6,15.5,19.5,15.5,19.5c0.9,1.2,2.4,1.8,3.8,1.4c4.8-1.3,16.8-3.6,20.5-4.9
				C443.7,219.9,442.5,213.6,442.5,213.6z"/>
		</g>
		<polygon class="st27" points="400.4,192.9 400.9,191.4 407.9,193.1 406.7,196.4 		"/>
		<polygon class="st27" points="411.1,194.6 410.6,193.1 407.9,193.1 409.1,196.4 		"/>
	</g>
</g>
</svg>
